<mxfile host="app.diagrams.net" modified="2024-03-02T17:18:15.538Z" agent="Mozilla/5.0 (Windows NT 10.0; Win64; x64; rv:123.0) Gecko/20100101 Firefox/123.0" etag="dTootOGwvQHtQqFgszFF" version="24.0.1" type="device">
  <diagram name="Page-1" id="BFHNfZJU5ZwjxhyD6Uoi">
    <mxGraphModel dx="1434" dy="782" grid="1" gridSize="10" guides="1" tooltips="1" connect="1" arrows="1" fold="1" page="1" pageScale="1" pageWidth="850" pageHeight="1100" math="0" shadow="0">
      <root>
        <mxCell id="0" />
        <mxCell id="1" parent="0" />
        <mxCell id="1WHHOn5-YzeUdTR2siTE-1" value="" style="verticalLabelPosition=bottom;html=1;verticalAlign=top;align=center;strokeColor=none;fillColor=#00BEF2;shape=mxgraph.azure.storage_blob;" vertex="1" parent="1">
          <mxGeometry x="167.5" y="320" width="47.5" height="40" as="geometry" />
        </mxCell>
        <mxCell id="1WHHOn5-YzeUdTR2siTE-2" value="" style="whiteSpace=wrap;html=1;shape=mxgraph.basic.document" vertex="1" parent="1">
          <mxGeometry x="160" y="220" width="65" height="60" as="geometry" />
        </mxCell>
        <mxCell id="1WHHOn5-YzeUdTR2siTE-4" value="" style="verticalLabelPosition=bottom;html=1;verticalAlign=top;align=center;strokeColor=none;fillColor=#00BEF2;shape=mxgraph.azure.storage_blob;" vertex="1" parent="1">
          <mxGeometry x="163.75" y="135" width="50" height="45" as="geometry" />
        </mxCell>
        <mxCell id="1WHHOn5-YzeUdTR2siTE-5" value="" style="whiteSpace=wrap;html=1;shape=mxgraph.basic.document" vertex="1" parent="1">
          <mxGeometry x="157.5" y="30" width="65" height="60" as="geometry" />
        </mxCell>
        <mxCell id="1WHHOn5-YzeUdTR2siTE-7" value="" style="endArrow=classic;html=1;rounded=0;" edge="1" parent="1">
          <mxGeometry width="50" height="50" relative="1" as="geometry">
            <mxPoint x="240" y="59.5" as="sourcePoint" />
            <mxPoint x="300" y="59.5" as="targetPoint" />
          </mxGeometry>
        </mxCell>
        <mxCell id="1WHHOn5-YzeUdTR2siTE-8" value="" style="endArrow=classic;html=1;rounded=0;" edge="1" parent="1">
          <mxGeometry width="50" height="50" relative="1" as="geometry">
            <mxPoint x="242.5" y="260" as="sourcePoint" />
            <mxPoint x="302.5" y="260" as="targetPoint" />
          </mxGeometry>
        </mxCell>
        <mxCell id="1WHHOn5-YzeUdTR2siTE-9" value="Blob Storage" style="text;html=1;align=center;verticalAlign=middle;resizable=0;points=[];autosize=1;strokeColor=none;fillColor=none;" vertex="1" parent="1">
          <mxGeometry x="145" y="180" width="90" height="30" as="geometry" />
        </mxCell>
        <mxCell id="1WHHOn5-YzeUdTR2siTE-10" value="Blob Storage" style="text;html=1;align=center;verticalAlign=middle;resizable=0;points=[];autosize=1;strokeColor=none;fillColor=none;" vertex="1" parent="1">
          <mxGeometry x="146.25" y="360" width="90" height="30" as="geometry" />
        </mxCell>
        <mxCell id="1WHHOn5-YzeUdTR2siTE-11" value="Job Description" style="text;html=1;align=center;verticalAlign=middle;resizable=0;points=[];autosize=1;strokeColor=none;fillColor=none;" vertex="1" parent="1">
          <mxGeometry x="135" y="90" width="110" height="30" as="geometry" />
        </mxCell>
        <mxCell id="1WHHOn5-YzeUdTR2siTE-12" value="Resume" style="text;html=1;align=center;verticalAlign=middle;resizable=0;points=[];autosize=1;strokeColor=none;fillColor=none;" vertex="1" parent="1">
          <mxGeometry x="157.5" y="280" width="70" height="30" as="geometry" />
        </mxCell>
        <mxCell id="1WHHOn5-YzeUdTR2siTE-13" value="" style="endArrow=none;html=1;rounded=0;exitX=0.982;exitY=1;exitDx=0;exitDy=0;exitPerimeter=0;" edge="1" parent="1">
          <mxGeometry width="50" height="50" relative="1" as="geometry">
            <mxPoint x="164.01000000000002" y="310" as="sourcePoint" />
            <mxPoint x="220.99" y="310" as="targetPoint" />
            <Array as="points" />
          </mxGeometry>
        </mxCell>
        <mxCell id="1WHHOn5-YzeUdTR2siTE-14" value="" style="endArrow=none;html=1;rounded=0;exitX=0.982;exitY=1;exitDx=0;exitDy=0;exitPerimeter=0;" edge="1" parent="1">
          <mxGeometry width="50" height="50" relative="1" as="geometry">
            <mxPoint x="160.25" y="120" as="sourcePoint" />
            <mxPoint x="217.25" y="120" as="targetPoint" />
            <Array as="points" />
          </mxGeometry>
        </mxCell>
        <mxCell id="1WHHOn5-YzeUdTR2siTE-18" value="" style="endArrow=none;html=1;rounded=0;" edge="1" parent="1">
          <mxGeometry width="50" height="50" relative="1" as="geometry">
            <mxPoint x="250" y="310" as="sourcePoint" />
            <mxPoint x="600" y="310" as="targetPoint" />
            <Array as="points" />
          </mxGeometry>
        </mxCell>
        <mxCell id="1WHHOn5-YzeUdTR2siTE-22" value="Extract skills" style="text;html=1;align=center;verticalAlign=middle;resizable=0;points=[];autosize=1;strokeColor=none;fillColor=none;" vertex="1" parent="1">
          <mxGeometry x="296.92" y="90" width="90" height="30" as="geometry" />
        </mxCell>
        <mxCell id="1WHHOn5-YzeUdTR2siTE-24" value="" style="sketch=0;outlineConnect=0;fontColor=#232F3E;gradientColor=none;fillColor=#232F3D;strokeColor=none;dashed=0;verticalLabelPosition=bottom;verticalAlign=top;align=center;html=1;fontSize=12;fontStyle=0;aspect=fixed;pointerEvents=1;shape=mxgraph.aws4.document;" vertex="1" parent="1">
          <mxGeometry x="320" y="30" width="43.84" height="60" as="geometry" />
        </mxCell>
        <mxCell id="1WHHOn5-YzeUdTR2siTE-25" value="Extract skills" style="text;html=1;align=center;verticalAlign=middle;resizable=0;points=[];autosize=1;strokeColor=none;fillColor=none;" vertex="1" parent="1">
          <mxGeometry x="299.42" y="280" width="90" height="30" as="geometry" />
        </mxCell>
        <mxCell id="1WHHOn5-YzeUdTR2siTE-26" value="" style="sketch=0;outlineConnect=0;fontColor=#232F3E;gradientColor=none;fillColor=#232F3D;strokeColor=none;dashed=0;verticalLabelPosition=bottom;verticalAlign=top;align=center;html=1;fontSize=12;fontStyle=0;aspect=fixed;pointerEvents=1;shape=mxgraph.aws4.document;" vertex="1" parent="1">
          <mxGeometry x="322.5" y="220" width="43.84" height="60" as="geometry" />
        </mxCell>
        <mxCell id="1WHHOn5-YzeUdTR2siTE-31" value="" style="image;aspect=fixed;html=1;points=[];align=center;fontSize=12;image=img/lib/azure2/app_services/Search_Services.svg;" vertex="1" parent="1">
          <mxGeometry x="399.5" y="320" width="55.38" height="40" as="geometry" />
        </mxCell>
        <mxCell id="1WHHOn5-YzeUdTR2siTE-32" value="Azure Search" style="text;html=1;align=center;verticalAlign=middle;resizable=0;points=[];autosize=1;strokeColor=none;fillColor=none;" vertex="1" parent="1">
          <mxGeometry x="377.19" y="360" width="100" height="30" as="geometry" />
        </mxCell>
        <mxCell id="1WHHOn5-YzeUdTR2siTE-35" value="" style="sketch=0;aspect=fixed;pointerEvents=1;shadow=0;dashed=0;html=1;strokeColor=none;labelPosition=center;verticalLabelPosition=bottom;verticalAlign=top;align=center;fillColor=#00188D;shape=mxgraph.azure.computer" vertex="1" parent="1">
          <mxGeometry x="660" y="160" width="50" height="45" as="geometry" />
        </mxCell>
        <mxCell id="1WHHOn5-YzeUdTR2siTE-36" value="" style="endArrow=none;html=1;rounded=0;" edge="1" parent="1">
          <mxGeometry width="50" height="50" relative="1" as="geometry">
            <mxPoint x="610" y="280" as="sourcePoint" />
            <mxPoint x="610" y="80" as="targetPoint" />
          </mxGeometry>
        </mxCell>
        <mxCell id="1WHHOn5-YzeUdTR2siTE-38" value="&lt;div&gt;Job / Resume&amp;nbsp;&lt;/div&gt;&lt;div&gt;recommendations&lt;/div&gt;&lt;div&gt;&lt;br&gt;&lt;/div&gt;" style="text;html=1;align=center;verticalAlign=middle;resizable=0;points=[];autosize=1;strokeColor=none;fillColor=none;" vertex="1" parent="1">
          <mxGeometry x="625" y="205" width="120" height="60" as="geometry" />
        </mxCell>
        <mxCell id="1WHHOn5-YzeUdTR2siTE-39" value="" style="image;aspect=fixed;html=1;points=[];align=center;fontSize=12;image=img/lib/azure2/app_services/Search_Services.svg;" vertex="1" parent="1">
          <mxGeometry x="440" y="40" width="55.38" height="40" as="geometry" />
        </mxCell>
        <mxCell id="1WHHOn5-YzeUdTR2siTE-40" value="" style="image;aspect=fixed;html=1;points=[];align=center;fontSize=12;image=img/lib/azure2/app_services/Search_Services.svg;" vertex="1" parent="1">
          <mxGeometry x="442.5" y="230" width="55.38" height="40" as="geometry" />
        </mxCell>
        <mxCell id="1WHHOn5-YzeUdTR2siTE-41" value="&lt;div&gt;Job Description&amp;nbsp;&lt;/div&gt;&lt;div&gt;Index&lt;/div&gt;" style="text;html=1;align=center;verticalAlign=middle;resizable=0;points=[];autosize=1;strokeColor=none;fillColor=none;" vertex="1" parent="1">
          <mxGeometry x="412.69" y="85" width="110" height="40" as="geometry" />
        </mxCell>
        <mxCell id="1WHHOn5-YzeUdTR2siTE-42" value="&lt;div&gt;Resume Index&lt;/div&gt;" style="text;html=1;align=center;verticalAlign=middle;resizable=0;points=[];autosize=1;strokeColor=none;fillColor=none;" vertex="1" parent="1">
          <mxGeometry x="420.19" y="280" width="100" height="30" as="geometry" />
        </mxCell>
      </root>
    </mxGraphModel>
  </diagram>
</mxfile>
